<?xml version="1.0" encoding="UTF-8" standalone="no"?>
<!-- Created with Inkscape (http://www.inkscape.org/) -->

<svg
   version="1.1"
   id="svg1"
   width="573.68848"
   height="88.385315"
   viewBox="0 0 573.68848 88.385313"
   xmlns="http://www.w3.org/2000/svg"
   xmlns:svg="http://www.w3.org/2000/svg">
  <defs
     id="defs1">
    <clipPath
       clipPathUnits="userSpaceOnUse"
       id="clipPath3">
      <path
         d="M 0,841.89 H 595.28 V 0 H 0 Z"
         id="path3" />
    </clipPath>
    <clipPath
       clipPathUnits="userSpaceOnUse"
       id="clipPath5">
      <path
         d="M 0,841.89 H 595.28 V 0 H 0 Z"
         transform="translate(-300.77641,-515.57411)"
         id="path5" />
    </clipPath>
    <clipPath
       clipPathUnits="userSpaceOnUse"
       id="clipPath7">
      <path
         d="M 0,841.89 H 595.28 V 0 H 0 Z"
         transform="translate(-310.73541,-519.01061)"
         id="path7" />
    </clipPath>
    <clipPath
       clipPathUnits="userSpaceOnUse"
       id="clipPath9">
      <path
         d="M 0,841.89 H 595.28 V 0 H 0 Z"
         transform="translate(-339.16111,-519.01061)"
         id="path9" />
    </clipPath>
    <clipPath
       clipPathUnits="userSpaceOnUse"
       id="clipPath11">
      <path
         d="M 0,841.89 H 595.28 V 0 H 0 Z"
         transform="translate(-357.01371,-519.00281)"
         id="path11" />
    </clipPath>
    <clipPath
       clipPathUnits="userSpaceOnUse"
       id="clipPath13">
      <path
         d="M 0,841.89 H 595.28 V 0 H 0 Z"
         id="path13" />
    </clipPath>
    <clipPath
       clipPathUnits="userSpaceOnUse"
       id="clipPath15">
      <path
         d="M 0,841.89 H 595.28 V 0 H 0 Z"
         transform="translate(-405.11521,-513.11851)"
         id="path15" />
    </clipPath>
    <clipPath
       clipPathUnits="userSpaceOnUse"
       id="clipPath17">
      <path
         d="M 0,841.89 H 595.28 V 0 H 0 Z"
         id="path17" />
    </clipPath>
    <clipPath
       clipPathUnits="userSpaceOnUse"
       id="clipPath19">
      <path
         d="M 0,841.89 H 595.28 V 0 H 0 Z"
         id="path19" />
    </clipPath>
    <clipPath
       clipPathUnits="userSpaceOnUse"
       id="clipPath21">
      <path
         d="M 0,841.89 H 595.28 V 0 H 0 Z"
         transform="translate(-269.2588,-551.55022)"
         id="path21" />
    </clipPath>
    <clipPath
       clipPathUnits="userSpaceOnUse"
       id="clipPath23">
      <path
         d="M 0,841.89 H 595.28 V 0 H 0 Z"
         transform="translate(-319.16991,-553.52141)"
         id="path23" />
    </clipPath>
    <clipPath
       clipPathUnits="userSpaceOnUse"
       id="clipPath25">
      <path
         d="M 0,841.89 H 595.28 V 0 H 0 Z"
         id="path25" />
    </clipPath>
    <clipPath
       clipPathUnits="userSpaceOnUse"
       id="clipPath27">
      <path
         d="M 0,841.89 H 595.28 V 0 H 0 Z"
         transform="translate(-441.15431,-563.30021)"
         id="path27" />
    </clipPath>
    <clipPath
       clipPathUnits="userSpaceOnUse"
       id="clipPath29">
      <path
         d="M 0,841.89 H 595.28 V 0 H 0 Z"
         transform="translate(-87.983905,-564.73522)"
         id="path29" />
    </clipPath>
  </defs>
  <g
     id="g1"
     transform="translate(-117.31187,-350.33307)">
    <path
       id="path2"
       d="m 255.937,519.827 h 13.318 v 1.859 h -13.318 z m 14.804,4.542 c 0.654,0 1.272,-0.065 1.855,-0.196 0.582,-0.131 1.092,-0.308 1.532,-0.529 0.439,-0.223 0.784,-0.485 1.035,-0.785 0.25,-0.302 0.375,-0.619 0.375,-0.953 v -6.324 c 0,-0.34 -0.125,-0.659 -0.375,-0.957 -0.251,-0.298 -0.596,-0.56 -1.035,-0.785 -0.44,-0.224 -0.95,-0.402 -1.532,-0.53 -0.583,-0.128 -1.201,-0.191 -1.855,-0.191 h -1.487 v 4.565 h -13.317 v -4.565 h -1.625 c -0.664,0 -1.287,0.063 -1.87,0.191 -0.582,0.128 -1.093,0.306 -1.532,0.53 -0.439,0.225 -0.784,0.487 -1.035,0.785 -0.25,0.298 -0.375,0.617 -0.375,0.957 v 6.324 c 0,0.334 0.125,0.651 0.375,0.953 0.251,0.3 0.596,0.562 1.035,0.785 0.439,0.221 0.95,0.398 1.532,0.529 0.583,0.131 1.206,0.196 1.87,0.196 z"
       style="fill:#ffffff;fill-opacity:1;fill-rule:nonzero;stroke:none"
       transform="matrix(1.3333333,0,0,-1.3333333,0,1122.52)"
       clip-path="url(#clipPath3)" />
    <path
       id="path4"
       d="m 0,0 c 0,-0.34 -0.125,-0.658 -0.375,-0.953 -0.251,-0.296 -0.596,-0.556 -1.035,-0.781 -0.439,-0.224 -0.95,-0.402 -1.532,-0.53 -0.583,-0.128 -1.201,-0.192 -1.855,-0.192 h -11.724 c -0.664,0 -1.287,0.064 -1.87,0.192 -0.582,0.128 -1.093,0.306 -1.532,0.53 -0.439,0.225 -0.784,0.485 -1.035,0.781 -0.25,0.295 -0.375,0.613 -0.375,0.953 v 6.12 h 6.437 V 0.228 h 8.475 V 6.12 H 0 Z"
       style="fill:#ffffff;fill-opacity:1;fill-rule:nonzero;stroke:none"
       transform="matrix(1.3333333,0,0,-1.3333333,401.0352,435.08787)"
       clip-path="url(#clipPath5)" />
    <path
       id="path6"
       d="m 0,0 v -1.012 h 10.988 c 0.583,0 1.132,-0.058 1.648,-0.173 0.516,-0.115 0.966,-0.27 1.348,-0.467 0.384,-0.195 0.688,-0.426 0.912,-0.69 0.225,-0.264 0.337,-0.545 0.337,-0.844 v -0.251 c 0,-0.339 -0.125,-0.659 -0.375,-0.957 -0.251,-0.298 -0.595,-0.558 -1.035,-0.78 C 13.385,-5.397 12.874,-5.572 12.291,-5.7 11.709,-5.829 11.086,-5.892 10.422,-5.892 H -1.287 c -0.664,0 -1.287,0.063 -1.87,0.192 -0.582,0.128 -1.093,0.303 -1.532,0.526 -0.44,0.222 -0.785,0.482 -1.035,0.78 -0.251,0.298 -0.376,0.618 -0.376,0.957 v 0.22 H 8.95 v 1.012 H 7.187 -1.854 c -0.583,0 -1.131,0.058 -1.648,0.173 -0.516,0.115 -0.965,0.27 -1.349,0.467 -0.382,0.195 -0.686,0.425 -0.912,0.69 C -5.987,-0.611 -6.1,-0.33 -6.1,-0.031 V 0.22 c 0,0.334 0.125,0.651 0.376,0.949 0.25,0.298 0.595,0.558 1.035,0.781 0.439,0.221 0.95,0.397 1.532,0.525 0.583,0.128 1.206,0.192 1.87,0.192 h 11.709 c 0.664,0 1.287,-0.064 1.869,-0.192 0.583,-0.128 1.094,-0.304 1.532,-0.525 0.44,-0.223 0.784,-0.483 1.035,-0.781 0.25,-0.298 0.375,-0.615 0.375,-0.949 V 0 Z"
       style="fill:#ffffff;fill-opacity:1;fill-rule:nonzero;stroke:none"
       transform="matrix(1.3333333,0,0,-1.3333333,414.31387,430.50587)"
       clip-path="url(#clipPath7)" />
    <path
       id="path8"
       d="m 0,0 v -3.217 h 7.128 v -2.675 h -8.767 c -0.664,0 -1.287,0.063 -1.862,0.192 -0.579,0.128 -1.087,0.303 -1.526,0.526 -0.44,0.222 -0.784,0.482 -1.034,0.78 -0.25,0.298 -0.376,0.618 -0.376,0.957 V 0 h -2.666 v 2.667 h 2.666 v 1.507 c 0,0.334 0.126,0.651 0.376,0.949 0.25,0.298 0.594,0.56 1.034,0.785 0.439,0.224 0.947,0.401 1.526,0.529 0.575,0.128 1.198,0.192 1.862,0.192 H 0 V 2.667 H 7.128 V 0 Z"
       style="fill:#ffffff;fill-opacity:1;fill-rule:nonzero;stroke:none"
       transform="matrix(1.3333333,0,0,-1.3333333,452.2148,430.50587)"
       clip-path="url(#clipPath9)" />
    <path
       id="path10"
       d="M 0,0 V -5.884 H -6.437 V 2.683 H 7.877 c 0.654,0 1.272,-0.064 1.854,-0.192 0.582,-0.129 1.093,-0.305 1.533,-0.53 0.439,-0.225 0.783,-0.486 1.034,-0.784 0.25,-0.299 0.376,-0.615 0.376,-0.949 V 0 Z"
       style="fill:#ffffff;fill-opacity:1;fill-rule:nonzero;stroke:none"
       transform="matrix(1.3333333,0,0,-1.3333333,476.01827,430.51627)"
       clip-path="url(#clipPath11)" />
    <path
       id="path12"
       d="m 388.245,516.814 h -8.476 v -1.012 h 8.476 z m 1.624,4.88 c 0.664,0 1.288,-0.066 1.87,-0.197 0.582,-0.13 1.09,-0.307 1.524,-0.529 0.434,-0.223 0.777,-0.484 1.029,-0.785 0.248,-0.301 0.374,-0.618 0.374,-0.953 v -6.111 h -16.52 c -0.624,0 -1.211,0.057 -1.763,0.172 -0.552,0.115 -1.04,0.272 -1.463,0.471 -0.426,0.199 -0.773,0.434 -1.042,0.706 -0.273,0.272 -0.438,0.562 -0.499,0.871 -0.021,0.042 -0.03,0.079 -0.03,0.114 0,0.033 -0.005,0.071 -0.016,0.113 0.011,0.335 0.144,0.65 0.398,0.945 0.256,0.296 0.6,0.555 1.036,0.778 0.432,0.221 0.938,0.396 1.515,0.525 0.577,0.128 1.199,0.192 1.864,0.192 h 10.099 v 1.012 h -14.912 v 0.212 c 0,0.335 0.128,0.652 0.384,0.953 0.255,0.301 0.598,0.562 1.033,0.785 0.435,0.222 0.943,0.399 1.525,0.529 0.583,0.131 1.206,0.197 1.871,0.197 z"
       style="fill:#ffffff;fill-opacity:1;fill-rule:nonzero;stroke:none"
       transform="matrix(1.3333333,0,0,-1.3333333,0,1122.52)"
       clip-path="url(#clipPath13)" />
    <path
       id="path14"
       d="M 0,0 H -1.625 C -2.289,0 -2.912,0.063 -3.494,0.192 -4.077,0.32 -4.586,0.497 -5.021,0.722 -5.454,0.947 -5.799,1.207 -6.054,1.503 -6.31,1.797 -6.437,2.116 -6.437,2.456 V 12.521 H 0 Z"
       style="fill:#ffffff;fill-opacity:1;fill-rule:nonzero;stroke:none"
       transform="matrix(1.3333333,0,0,-1.3333333,540.1536,438.362)"
       clip-path="url(#clipPath15)" />
    <path
       id="path16"
       d="m 409.159,521.678 h 6.437 v -8.56 h -6.437 z m 0,1.506 c 0,0.33 0.119,0.641 0.362,0.934 0.238,0.293 0.568,0.55 0.987,0.773 0.419,0.222 0.909,0.4 1.471,0.533 0.562,0.134 1.16,0.206 1.793,0.216 h 1.824 v -2.683 h -6.437 z"
       style="fill:#ffffff;fill-opacity:1;fill-rule:nonzero;stroke:none"
       transform="matrix(1.3333333,0,0,-1.3333333,0,1122.52)"
       clip-path="url(#clipPath17)" />
    <path
       id="path18"
       d="m 434.703,516.814 h -8.475 v -1.012 h 8.475 z m 1.625,4.88 c 0.664,0 1.287,-0.066 1.869,-0.197 0.583,-0.13 1.09,-0.307 1.525,-0.529 0.433,-0.223 0.776,-0.484 1.028,-0.785 0.249,-0.301 0.375,-0.618 0.375,-0.953 v -6.111 h -16.521 c -0.624,0 -1.21,0.057 -1.762,0.172 -0.552,0.115 -1.041,0.272 -1.463,0.471 -0.426,0.199 -0.774,0.434 -1.042,0.706 -0.273,0.272 -0.439,0.562 -0.499,0.871 -0.021,0.042 -0.031,0.079 -0.031,0.114 0,0.033 -0.005,0.071 -0.015,0.113 0.01,0.335 0.143,0.65 0.398,0.945 0.255,0.296 0.599,0.555 1.036,0.778 0.432,0.221 0.938,0.396 1.515,0.525 0.577,0.128 1.198,0.192 1.863,0.192 h 10.099 v 1.012 h -14.911 v 0.212 c 0,0.335 0.127,0.652 0.383,0.953 0.255,0.301 0.599,0.562 1.033,0.785 0.435,0.222 0.943,0.399 1.526,0.529 0.582,0.131 1.205,0.197 1.87,0.197 z"
       style="fill:#ffffff;fill-opacity:1;fill-rule:nonzero;stroke:none"
       transform="matrix(1.3333333,0,0,-1.3333333,0,1122.52)"
       clip-path="url(#clipPath19)" />
    <path
       id="path20"
       d="M 0,0 V -7.688 H 25.253 V -19.41 H -5.811 c -2.354,0 -4.553,0.231 -6.598,0.697 -2.046,0.465 -3.847,1.102 -5.404,1.913 -1.557,0.804 -2.779,1.752 -3.666,2.835 -0.887,1.083 -1.33,2.243 -1.33,3.478 V 2 h -9.45 v 9.693 h 9.45 v 5.474 c 0,1.216 0.443,2.366 1.33,3.449 0.887,1.084 2.109,2.034 3.666,2.851 1.557,0.817 3.358,1.457 5.404,1.926 2.045,0.462 4.244,0.697 6.598,0.697 H 0 V 11.693 H 25.253 V 0 Z"
       style="fill:none;stroke:#ffffff;stroke-width:3;stroke-linecap:butt;stroke-linejoin:miter;stroke-miterlimit:10;stroke-dasharray:none;stroke-opacity:1"
       transform="matrix(1.3333333,0,0,-1.3333333,359.01173,387.11973)"
       clip-path="url(#clipPath21)" />
    <path
       id="path22"
       d="M 0,0 V -21.381 H -22.809 V 9.75 h 50.723 c 2.317,0 4.508,-0.234 6.571,-0.697 C 36.549,8.584 38.359,7.945 39.916,7.127 41.474,6.31 42.695,5.36 43.582,4.276 44.469,3.193 44.913,2.043 44.913,0.827 V 0 Z"
       style="fill:none;stroke:#ffffff;stroke-width:3;stroke-linecap:butt;stroke-linejoin:miter;stroke-miterlimit:10;stroke-dasharray:none;stroke-opacity:1"
       transform="matrix(1.3333333,0,0,-1.3333333,425.55987,384.49147)"
       clip-path="url(#clipPath23)" />
    <path
       id="path24"
       d="m 414.467,551.593 h -24.429 v -7.54 h 24.429 z m 9.305,11.707 c 2.354,0 4.562,-0.238 6.626,-0.713 2.064,-0.475 3.874,-1.118 5.431,-1.926 1.557,-0.807 2.778,-1.758 3.665,-2.851 0.888,-1.092 1.331,-2.245 1.331,-3.461 v -13.286 c 0,-1.235 -0.443,-2.391 -1.331,-3.462 -0.887,-1.077 -2.108,-2.021 -3.665,-2.838 -1.557,-0.817 -3.367,-1.46 -5.431,-1.926 -2.064,-0.466 -4.272,-0.697 -6.626,-0.697 h -41.544 c -2.354,0 -4.563,0.231 -6.626,0.697 -2.064,0.466 -3.865,1.109 -5.404,1.926 -1.539,0.817 -2.752,1.761 -3.638,2.838 -0.887,1.071 -1.331,2.227 -1.331,3.462 v 13.286 c 0,1.216 0.444,2.369 1.331,3.461 0.886,1.093 2.099,2.044 3.638,2.851 1.539,0.808 3.34,1.451 5.404,1.926 2.063,0.475 4.272,0.713 6.626,0.713 z"
       style="fill:none;stroke:#ffffff;stroke-width:3;stroke-linecap:butt;stroke-linejoin:miter;stroke-miterlimit:10;stroke-dasharray:none;stroke-opacity:1"
       transform="matrix(1.3333333,0,0,-1.3333333,0,1122.52)"
       clip-path="url(#clipPath25)" />
    <path
       id="path26"
       d="m 0,0 h 58.598 c 2.317,0 4.506,-0.238 6.571,-0.713 2.063,-0.475 3.874,-1.118 5.431,-1.926 1.556,-0.807 2.778,-1.758 3.666,-2.851 0.886,-1.093 1.33,-2.245 1.33,-3.462 V -31.16 H 52.786 V -9.75 H 22.809 V -31.16 H 0 Z"
       style="fill:none;stroke:#ffffff;stroke-width:3;stroke-linecap:butt;stroke-linejoin:miter;stroke-miterlimit:10;stroke-dasharray:none;stroke-opacity:1"
       transform="matrix(1.3333333,0,0,-1.3333333,588.20573,371.45307)"
       clip-path="url(#clipPath27)" />
    <path
       id="path28"
       d="m 0,0 c 0.218,2.422 0.696,3.32 1.135,4.401 2.087,5.143 6.406,9.467 12.698,9.631 10.949,0.284 21.909,0.189 32.864,0.214 13.318,0.03 26.636,0.008 39.954,0.053 1.042,0.004 1.655,-0.303 2.218,-1.182 6.022,-9.406 12.084,-18.785 18.133,-28.173 1.083,-1.681 2.481,-1.593 3.493,0.181 5.414,9.483 10.837,18.961 16.289,28.422 0.192,0.333 0.714,0.675 1.085,0.675 5.355,-0.007 16.402,-0.007 16.683,-0.023 0,-22.005 0.033,-44.03 0.033,-66.083 h -13.988 c 0,2.017 -0.001,3.994 0,5.971 0.002,8.577 0.004,17.153 0.007,25.73 0,2.237 -0.101,5.413 -0.03,7.648 h -2.565 c 0.035,0 -0.247,-0.25 -0.871,-1.25 -3.615,-6.201 -7.267,-12.379 -10.947,-18.541 -0.208,-0.347 -0.772,-0.677 -1.173,-0.682 -4.439,-0.052 -8.879,-0.011 -13.318,-0.063 -0.841,-0.011 -1.178,0.429 -1.559,1.013 -3.932,6.018 -8.733,13.464 -12.601,19.523 h -2.957 c 0,-6.748 0.078,-13.601 0.078,-20.465 H 69.923 V 3.482 C 69.387,3.509 68.962,3.547 68.538,3.548 51.74,3.553 34.943,3.555 18.145,3.555 c -1.874,0 -2.14,-0.271 -2.139,-2.139 0,-1.44 -0.004,-2.88 0.003,-4.319 0.007,-1.484 0.167,-1.649 1.661,-1.649 9.079,-0.005 28.278,-0.007 28.96,-0.007 0,-2.673 -0.001,-4.406 0,-6.912 10e-4,-2.332 0,-3.1 0,-3.1 -9.119,0.005 -20.491,-0.002 -29.61,0.03 -1.076,0.004 -1.53,-0.346 -1.495,-1.452 0.055,-1.678 0.009,-3.359 0.011,-5.039 0.001,-1.34 0.247,-1.585 1.629,-1.585 14.038,-0.004 28.076,-0.004 42.114,-0.006 0.476,0 0.953,0 1.528,0 V -33.06 c -0.524,0 -59.672,0.023 -60.807,0.056 z"
       style="fill:#ffffff;fill-opacity:1;fill-rule:nonzero;stroke:none"
       transform="matrix(1.3333333,0,0,-1.3333333,117.31187,369.53973)"
       clip-path="url(#clipPath29)" />
  </g>
</svg>
